<svg viewBox="0 0 637 185" fill="none" xmlns="http://www.w3.org/2000/svg">
  <g>
    <path d="M82.537 70.6204H43.1732V146.222H16.4097V70.6204H0V47.764H16.4097V36.6288C16.4097 25.5588 19.6331 16.7027 26.0797 10.0607C32.5264 3.41869 41.2196 0.0651179 52.1595 0C58.0201 0 62.4155 0.651179 65.3458 1.95354V24.4192C63.0667 23.768 60.2015 23.4424 56.7503 23.4424C53.299 23.3773 50.1734 24.3867 47.3733 26.4704C44.5732 28.5542 43.1732 32.0706 43.1732 37.0195V47.764H109.007V146.222H82.537V70.6204Z" fill="black"/>
    <path d="M159.843 124.538C162.903 127.403 166.843 128.836 171.662 128.836C176.48 128.836 180.029 127.892 182.308 126.003C184.588 124.115 185.727 121.771 185.727 118.97C185.727 114.021 182.211 110.831 175.178 109.398L162.187 106.37C143.759 102.333 134.544 92.1093 134.544 75.6996C134.544 67.625 138.061 60.462 145.094 54.2107C152.126 47.9593 160.885 44.8337 171.369 44.8337C189.146 44.8337 201.062 51.2804 207.118 64.1737C208.616 67.2342 209.56 70.2297 209.951 73.16L187.778 78.2392C187.257 74.853 185.695 71.7925 183.09 69.0575C180.55 66.3226 177.132 64.9551 172.834 64.9551C168.536 64.9551 165.15 65.9319 162.675 67.8854C160.201 69.7087 158.964 72.0204 158.964 74.8205C158.964 79.6392 161.959 82.5695 167.95 83.6114L181.918 86.6394C191.36 88.658 198.62 92.3046 203.7 97.5792C208.649 102.919 211.123 109.659 211.123 117.798C211.123 125.938 207.802 133.199 201.16 139.58C194.518 145.962 185.109 149.185 172.931 149.25C154.243 149.25 141.545 142.283 134.837 128.347C133.275 125.026 132.298 121.836 131.907 118.775L154.764 113.794C155.024 118.091 156.717 121.673 159.843 124.538Z" fill="black"/>
    <path d="M259.18 146.222H232.514V1.36748H259.18V84.3928L293.172 47.764H327.945L288.581 89.179L328.726 146.222H296.2L270.12 108.617L259.18 120.24V146.222Z" fill="black"/>
    <path d="M365.746 125.905C368.025 128.12 371.704 129.227 376.783 129.227C381.862 129.227 386.486 127.468 390.653 123.952C394.691 120.436 396.742 114.575 396.807 106.37V101.975L374.537 105.393C366.397 106.565 362.327 110.7 362.327 117.798C362.327 120.989 363.466 123.691 365.746 125.905ZM345.038 140.264C338.852 134.403 335.759 127.371 335.759 119.166C335.759 110.961 338.494 104.319 343.964 99.2397C349.434 94.1605 356.499 90.9372 365.16 89.5697L389.383 86.0533C394.332 85.4021 396.807 83.123 396.807 79.2159C396.807 75.3089 395.374 72.1832 392.509 69.839C389.644 67.4296 385.476 66.2249 380.006 66.2249C374.471 66.2249 370.076 67.7552 366.82 70.8157C363.564 73.8763 361.741 77.6857 361.35 82.2439L337.712 77.1647C338.624 68.6343 342.824 61.1132 350.313 54.6014C357.801 48.0896 368.285 44.8337 381.765 44.8337C395.244 44.8337 405.435 48.3501 412.337 55.3828C419.24 62.4155 422.724 71.3692 422.789 82.2439V130.594C422.789 136.455 423.18 141.664 423.961 146.222H399.542C398.891 143.292 398.565 139.352 398.565 134.403C392.314 144.171 382.644 149.055 369.555 149.055C359.397 149.055 351.224 146.125 345.038 140.264Z" fill="black"/>
    <path d="M476.218 146.222H449.552V1.36748H476.218V146.222Z" fill="black"/>
    <path d="M538.731 185H510.503L533.652 133.817L491.846 47.764H521.638L547.913 105.393L572.137 47.764H600.463L538.731 185Z" fill="black"/>
  </g>
  <path d="M605.372 142.315C601.791 138.799 600 134.501 600 129.422C600 124.343 601.791 120.045 605.372 116.528C608.954 113.012 613.251 111.254 618.266 111.254C623.215 111.254 627.512 113.012 631.159 116.528C634.806 120.045 636.629 124.343 636.629 129.422C636.629 134.501 634.838 138.799 631.257 142.315C627.675 145.832 623.345 147.59 618.266 147.59C613.186 147.59 608.889 145.832 605.372 142.315Z" fill="#FFFFFF"/>
</svg>
